<svg id="Layer_3_copy" data-name="Layer 3 copy" xmlns="http://www.w3.org/2000/svg" viewBox="0 0 33.53 35.76"><defs><style>.cls-1{fill:#231f20;}</style></defs><title>Wine-store-icon-black-40px</title><path class="cls-1" d="M6.23,37.16a1.67,1.67,0,0,0,1.55-1.65v-4A1.66,1.66,0,0,0,6.69,30c-2-.75-3.32-3.21-3.32-6.36a36,36,0,0,1,1.09-7.36v0H12v0a35.9,35.9,0,0,1,1.08,7.36c0,3.15-1.34,5.61-3.32,6.36a1.66,1.66,0,0,0-1.09,1.55v4a1.67,1.67,0,0,0,1.55,1.65c1.34.12,2.19.38,2.19.68s-1.87.75-4.17.75-4.17-.34-4.17-.75S4.9,37.28,6.23,37.16Zm4.15-8.82A4,4,0,0,0,11,27.05a8.08,8.08,0,0,0,.3-1.38c.06-.46.09-.93.11-1.39a18.43,18.43,0,0,0-.14-2.78c0-.46-.13-.92-.22-1.37a7.11,7.11,0,0,0-.37-1.35c.07.46.08.92.11,1.38s0,.91.06,1.37c0,.91.05,1.83,0,2.73A14.19,14.19,0,0,1,10.6,27a4.13,4.13,0,0,1-.44,1.25,1.83,1.83,0,0,1-1,.88A1.76,1.76,0,0,0,10.38,28.34Z" transform="translate(-3.37 -2.82)"/><path class="cls-1" d="M30.07,37.16a1.67,1.67,0,0,0,1.55-1.65v-4A1.66,1.66,0,0,0,30.53,30c-2-.75-3.32-3.21-3.32-6.36a35.9,35.9,0,0,1,1.08-7.36v0h7.51v0a36,36,0,0,1,1.09,7.36c0,3.15-1.34,5.61-3.32,6.36a1.66,1.66,0,0,0-1.09,1.55v4A1.67,1.67,0,0,0,34,37.16c1.34.12,2.19.38,2.19.68s-1.87.75-4.17.75-4.18-.34-4.18-.75S28.73,37.28,30.07,37.16Zm4.15-8.82a4,4,0,0,0,.63-1.29,9.16,9.16,0,0,0,.3-1.38c.06-.46.09-.93.11-1.39a19.84,19.84,0,0,0-.14-2.78c-.06-.46-.13-.92-.22-1.37a7.94,7.94,0,0,0-.37-1.35c.07.46.08.92.11,1.38s0,.91.06,1.37c0,.91,0,1.83,0,2.73A14.19,14.19,0,0,1,34.44,27,4.42,4.42,0,0,1,34,28.2a1.83,1.83,0,0,1-1,.88A1.76,1.76,0,0,0,34.22,28.34Z" transform="translate(-3.37 -2.82)"/><path class="cls-1" d="M19.57,2.82H20.7a.5.5,0,0,1,.5.51v.18H19.07V3.33A.5.5,0,0,1,19.57,2.82Z" transform="translate(-3.37 -2.82)"/><path class="cls-1" d="M18.36,3.91h3.55a.3.3,0,0,1,.3.3V5.77a.31.31,0,0,1-.3.3H18.36a.31.31,0,0,1-.3-.3V4.21A.3.3,0,0,1,18.36,3.91Z" transform="translate(-3.37 -2.82)"/><path class="cls-1" d="M17.52,13.67a1.36,1.36,0,0,0,.81-1.22V7a.5.5,0,0,1,.5-.5h2.61a.5.5,0,0,1,.5.5v5.48a1.36,1.36,0,0,0,.81,1.22,4.86,4.86,0,0,1,2.65,4.47v20a.51.51,0,0,1-.5.5H15.37a.51.51,0,0,1-.5-.5v-20A4.86,4.86,0,0,1,17.52,13.67Zm5.6,2.83a3.56,3.56,0,0,0-.61-.83,3.36,3.36,0,0,0-.83-.61,2.57,2.57,0,0,0-1-.28c.29.19.57.35.82.55a7,7,0,0,1,.71.62,10.67,10.67,0,0,1,1.21,1.51A2.72,2.72,0,0,0,23.12,16.5ZM16.83,31h6.61V22.53H16.83Z" transform="translate(-3.37 -2.82)"/></svg>