<svg id="Weed_copy" data-name="Weed copy" xmlns="http://www.w3.org/2000/svg" viewBox="0 0 36.02 38.32"><defs><style>.cls-1{fill:#231f20;}</style></defs><title>Cannabis-store-icon-black-40px</title><path class="cls-1" d="M37.72,29.68c-.47,0-.94.08-1.41.07a3.65,3.65,0,0,0-1.19,0,0,0,0,0,1,0,0,9.12,9.12,0,0,0-1.28,0c-.11,0-.23.07-.32,0-.41-.18-.82.21-1.23,0-.39.17-.8,0-1.19.11-.11,0-.26.11-.34.07-.31-.16-.58,0-.87.07,0,0-.12,0-.13,0-.09-.24-.24-.11-.37-.07l-.52.18c-.09,0-.17.08-.16-.07s-.07-.15-.18-.11a5.28,5.28,0,0,0-.73.33c-.05,0-.14.1-.16,0s-.19-.14-.29-.09l-.89.5c-.06-.12.09-.22,0-.34a.82.82,0,0,0-.27,0l-.7.32c-.05,0-.1.07-.14,0s-.27-.07-.4,0a2,2,0,0,0-.61.29c-.06,0-.15.12-.2.06s-.21,0-.3,0a5.66,5.66,0,0,0-.68.27c-.3.14-.63,0-.93.12v-.05c.05,0,.08,0,.09-.05s.09,0,.1-.05,0-.05.06,0a.73.73,0,0,0,.36-.07,4.09,4.09,0,0,0,1.52-.75.82.82,0,0,1,.37-.19,2.31,2.31,0,0,0,1.2-.59c.05,0,.13-.09.1-.16s.06-.17.16-.2a4.49,4.49,0,0,0,1.36-.56c.09-.06.24-.13.23-.21,0-.27.18-.27.32-.34a4.58,4.58,0,0,0,.7-.44c.12-.1.37-.14.26-.41,0,0,.06-.06.11-.07a6,6,0,0,0,1.32-.72c.26-.17.26-.18,0-.32,0,0,0,0,0-.05a7.19,7.19,0,0,0,1.35-.76s.11-.05.1-.13-.09-.07-.14-.09-.22,0-.31-.1a6.54,6.54,0,0,0,1.17-1L32.33,24c.27-.24.54-.43.77-.68s.21-.22-.06-.36c0,0,0,0,0,0a3.51,3.51,0,0,0,.84-.92c0-.05.08-.14.07-.15-.23-.21.06-.26.12-.36s.27-.37.4-.55.11-.15,0-.18-.06-.11,0-.16l.14-.18,0-.05h0c0-.18.2-.29.26-.45s.07-.11,0-.12c-.33-.05-.07-.17,0-.24a4.35,4.35,0,0,0,.46-.74c-.07-.09-.18.07-.22,0s.08-.13.11-.19a1.65,1.65,0,0,0,.37-.72l.06,0h0l0,0c-.15,0-.18-.06-.13-.18a4.39,4.39,0,0,1,.29-.62s0-.07,0-.09c-.27-.11,0-.23,0-.34s.14-.28.21-.42,0-.09,0-.1c-.26-.17,0-.31,0-.47s.21-.29,0-.47c0,0,0-.11.08-.12h0a.43.43,0,0,0,.1-.29h0c.07-.11.16-.3.07-.33s-.12-.21-.15-.32,0-.16-.07-.2-.12.08-.17.12c-.47.41-.72,1-1.33,1.3-.15.06-.23.26-.35.4s-.11.19-.19.17-.21.08-.28.16l-.37.45c0,.05-.1.14-.15.1s-.25,0-.33.13-.28.35-.42.53-.08.13-.13.06-.18,0-.24,0l-.53.64s-.05.14-.12.08-.22,0-.29.07-.33.39-.5.59c0,0-.07.16-.14.12s-.28,0-.36.14a7.26,7.26,0,0,0-.49.61s-.05.13-.13.08-.23,0-.31.11l-.66.73c-.12-.3-.15-.31-.34-.07a8.16,8.16,0,0,0-.67.88c0,.08-.09.2-.18,0s-.2-.12-.28,0a6.13,6.13,0,0,0-.57.95c-.05.11-.1.19-.21.06s-.26-.11-.37.06a6.59,6.59,0,0,0-.51.89c0,.1-.09.18-.19.07s-.27-.1-.37.08a4.67,4.67,0,0,0-.39,1.18c-.15,0-.14-.19-.26-.24a3.92,3.92,0,0,0-.73,1.16c0,.06-.06.18-.11.15-.25-.19-.28.09-.36.19-.38.47-.55,1.07-.94,1.55a17.13,17.13,0,0,0-1,1.55l0-.15h0c.07,0,.06-.11,0-.18a.71.71,0,0,1,.16-.34,3.45,3.45,0,0,0,.77-1.51c.1-.36.06-.45-.27-.61a3.59,3.59,0,0,0,.4-.78l.27-.83c.12-.39.12-.39-.27-.44l0,0a4,4,0,0,0,.72-1.74C23,22,23,22,22.6,22l0,0a1,1,0,0,0,.19-.3.05.05,0,0,1,0-.07s0,0,0,0a4.5,4.5,0,0,0,.46-1.47c0-.12-.05-.17-.16-.16s-.22-.08-.16-.25a5.27,5.27,0,0,0,.35-1.51c0-.08,0-.2-.05-.24s-.11-.21-.07-.34a7.74,7.74,0,0,0,.34-1.34c0-.09.06-.24-.11-.2s-.23-.09-.2-.24a10.39,10.39,0,0,0,.14-1.25c0-.09,0-.22-.12-.18s-.19-.09-.18-.21a5.47,5.47,0,0,0,0-1.28c0-.07,0-.16-.07-.2s-.1-.17-.09-.28a5.33,5.33,0,0,0,0-1.13c0-.07,0-.18-.09-.21s-.14-.15-.13-.26a10.07,10.07,0,0,0,0-1.1c0-.15-.07-.19-.2-.14l0,0a8.73,8.73,0,0,0,0-1.25c0-.07,0-.22-.11-.18S22.18,8,22.17,8a7.76,7.76,0,0,0-.06-1.07c0-.15-.1-.17-.22-.12l0,0a7.23,7.23,0,0,0-.11-1.15c0-.07-.14-.33-.26-.29a4.5,4.5,0,0,0-.09-.9c0-.07,0-.19-.09-.19s-.16-.13-.18-.24-.05-.4-.08-.6S21,3.07,20.9,3a.33.33,0,0,1-.2-.34c-.06-.53-.24-1-.29-1.58,0-.12,0-.32-.15-.34s-.17.19-.24.3-.07.28-.19.28c-.33,0-.25.23-.25.4a.88.88,0,0,1-.14.57.73.73,0,0,0-.2.4c0,.2-.06.41-.09.62s0,.15-.06.15-.17.15-.2.26a3.19,3.19,0,0,0-.1.69c0,.08,0,.19-.07.2s-.19.22-.22.36a4.15,4.15,0,0,0-.07.7c0,.08,0,.21-.1.21s-.16.12-.18.22a4.86,4.86,0,0,0-.06.85c0,.09,0,.22-.11.22s-.14.09-.16.18a5.82,5.82,0,0,0-.06,1c0,.08,0,.2-.09.2s-.18.12-.18.23c0,.32-.07.63,0,.95,0,.08,0,.19,0,.21s-.16.2-.19.34a7.06,7.06,0,0,0,0,.8c0,.16.14.37-.15.45,0,0,0,.07,0,.11s0,.36,0,.53c0,.37.14.76-.14,1.1a.25.25,0,0,0,0,.15,5.78,5.78,0,0,0,0,.93c0,.12.08.27,0,.37s-.11.32-.12.49a4.94,4.94,0,0,0,.12,1.15c0,.11,0,.23-.13.19s-.21,0-.2.19a5.6,5.6,0,0,0,.33,1.47c.05.15,0,.25-.15.21s-.21,0-.19.19A5.9,5.9,0,0,0,17,20.15c.06.13.13.28-.11.27s-.17.1-.15.22a5.8,5.8,0,0,0,.52,1.57c.12.21.06.27-.14.27s-.24.11-.18.29a7.5,7.5,0,0,0,.61,1.46c0,.09.12.21-.05.22s-.19.12-.14.27a8.5,8.5,0,0,0,.62,1.61c0,.06.12.16.05.2-.26.18-.07.37-.05.56s.17.33.08.57c-.16-.28-.41-.41-.51-.7a4.31,4.31,0,0,0-.63-1.05c-.06-.07-.12-.17-.22-.07s-.2,0-.23-.09a4.2,4.2,0,0,0-.29-.77c-.08-.18-.19-.23-.35-.11s-.22.1-.23-.11a2.75,2.75,0,0,0-.45-1.19c-.07-.13-.15-.17-.26,0s-.19.1-.23-.06a2.64,2.64,0,0,0-.56-.94c-.09-.1-.17-.15-.25,0s-.16.11-.22,0a2.94,2.94,0,0,0-.63-.81c-.07-.06-.14-.16-.24-.1s-.18,0-.23-.1a5.37,5.37,0,0,0-.66-.76c-.06-.06-.11-.16-.21-.1s-.19,0-.26-.09a2.84,2.84,0,0,0-.67-.67h0a1,1,0,0,1-.51-.43s-.05,0-.07,0h0l0,0h0a.22.22,0,0,0-.19-.19l0,0c0-.06-.08-.12-.14-.06s-.18,0-.27,0h0l0-.05h0c0-.08,0-.13-.1-.14l0-.07h0l0,0A.14.14,0,0,0,9,18.6H9s0,0,0-.05l0-.05s-.06,0-.07-.07,0,0,0,0-.07,0-.07-.08a.2.2,0,0,0-.13-.11l-.28-.06h0a.1.1,0,0,0-.1-.13l0-.06c0-.07,0-.13-.1-.13s0,0,0,0A.12.12,0,0,0,8,17.65H8l0,0-.13-.12a1.4,1.4,0,0,1-.43-.24h0l0,0h0l0-.05h0a.26.26,0,0,0-.2-.23L7,16.78s0,0,0-.05,0,0,0,0l-.06,0-.17,0-.12-.17s0,0,0,0h0l0-.05h0s0,0,0,0h0a0,0,0,0,1,0-.05.19.19,0,0,0-.16-.18l-.06-.06,0,0h0c-.07-.16-.2,0-.28-.06h0c-.05,0-.06,0-.06-.08l-.06-.07c0-.07,0-.12-.09-.12l0,0c0-.06,0-.1-.08-.09l0,0a0,0,0,0,1,0,0l0,0c0-.11-.1-.22-.18-.2s-.21-.08-.3-.17a9.35,9.35,0,0,0-.91-1H4c0-.05,0-.07-.08-.05H4s0,0,0,0,0,0,0,0l0,.09c-.11.05,0,.14-.06.22s0,.13,0,.14-.1.13-.08.21.18.36.14.5a.88.88,0,0,0,.09.58c0,.08.1.17.08.23-.12.31.08.54.18.8,0,.06.1.12,0,.18s0,.21,0,.31.15.3.23.45.09.11,0,.15,0,.23,0,.33a4.62,4.62,0,0,0,.28.48c0,.05.1.12,0,.15s0,.21,0,.3a3.68,3.68,0,0,0,.48.68c-.26,0-.17.14-.1.27a4.07,4.07,0,0,0,.46.63s.14.1,0,.14-.07.12,0,.18a3.3,3.3,0,0,0,.56.73s.14.09.06.13,0,.18,0,.25A5.27,5.27,0,0,0,7,23.2c-.24.18-.24.19,0,.41a4.08,4.08,0,0,1,.36.36c.09.1.42.14.14.39,0,0,0,.07,0,.1s.12.12.18.18a8.35,8.35,0,0,0,.94.75l-.32.1c-.14,0-.18.09-.05.19l.13.08a8.33,8.33,0,0,0,1.24.71c-.31.18-.3.18,0,.36a7.84,7.84,0,0,0,1.09.62c.14.07.39.05.31.33,0,0,.06.08.1.11a5.32,5.32,0,0,0,1.05.63c.06,0,.16.05.14.12-.05.23.14.32.27.41a2.81,2.81,0,0,0,1.34.53.36.36,0,0,1,.21.11,3.23,3.23,0,0,0,1.4.86,1.56,1.56,0,0,1,.6.27,2.87,2.87,0,0,0,1.45.71.48.48,0,0,1,.32.18l-.5,0a.3.3,0,0,0-.27-.05s-.05,0-.06,0h0a0,0,0,0,1,0,0l-.05,0a.34.34,0,0,0-.4-.17.94.94,0,0,0-.66-.16.2.2,0,0,1-.21,0,2.53,2.53,0,0,0-.83-.35c-.06,0-.13-.05-.18,0s-.13.06-.2,0a2.5,2.5,0,0,0-.7-.33c-.07,0-.18-.07-.21,0-.1.27-.23.09-.36,0l-.59-.21s-.13,0-.14,0c-.17.27-.32,0-.48,0l-.54-.2s-.12-.06-.13,0c-.05.31-.22.08-.32.06s-.41-.12-.62-.18-.13,0-.14,0-.11.08-.18.07A2.37,2.37,0,0,0,9.4,30a3,3,0,0,1-.79-.06.13.13,0,0,0-.15-.06,3.83,3.83,0,0,1-1.17,0c-.59,0-1.19,0-1.78,0s-1,0-1.58,0a7.23,7.23,0,0,1-1.54-.07.66.66,0,0,0-.46,0,1.77,1.77,0,0,0,.6.64c.2.16.44.24.62.4a3.85,3.85,0,0,0,.87.55,3.25,3.25,0,0,0,1.05.53.08.08,0,0,1,.07,0c.08.2.28.19.44.24s.21,0,.28.1c.35.31.85.3,1.23.55.12.07.33,0,.43.1a3.79,3.79,0,0,0,1.26.4,11.6,11.6,0,0,0,2.05.39,13.14,13.14,0,0,0,2.08.14c.47,0,.94,0,1.4,0,.79,0,1.56-.2,2.34-.19a.23.23,0,0,0,.12,0c.34-.21.72-.12,1.08-.18.09,0,.23,0,.19.14h0l-.15,0-.06,0-1.46.67c-.31.15-.59.33-.9.48a15.54,15.54,0,0,0-1.65.9l-.05,0c-.07,0-.1,0-.09.07a0,0,0,0,0,0,0l-.05,0a4.13,4.13,0,0,0-.65.36,13.64,13.64,0,0,0-1.37.85,20.25,20.25,0,0,0-1.66,1.22,1.4,1.4,0,0,0-.44.4l-.05,0h0c0,.05,0,.06-.09.06h0s-.07,0-.07,0-.09.19-.15.28a.26.26,0,0,0,.23,0,5.11,5.11,0,0,0,1-.14c.45-.06.9-.15,1.35-.25a10.54,10.54,0,0,0,1.72-.5c.48-.21.94-.45,1.42-.67a11.73,11.73,0,0,0,1.77-1.07,2.87,2.87,0,0,0,.64-.51c.26-.33.62-.56.9-.87a10.48,10.48,0,0,0,1.26-1.48l.13-.21s.05-.08.1-.07a.12.12,0,0,1,.07.1,1.77,1.77,0,0,1,0,.23l.33-.44.13.14a.81.81,0,0,0,.31.55c.34.3.6.68.93,1s.72.66,1.1,1a14.37,14.37,0,0,0,1.57,1.06,17.3,17.3,0,0,0,1.68.81,4.22,4.22,0,0,0,.67.26c.5.11,1,.28,1.48.39s1,.16,1.48.27a.36.36,0,0,0,.23,0h.07a1.87,1.87,0,0,0,.74.14.61.61,0,0,0-.26-.39,10,10,0,0,1-.82-.64c-.34-.28-.7-.53-1.06-.78l-.68-.46c-.44-.29-.9-.58-1.36-.84s-1.07-.61-1.62-.89c-.75-.38-1.48-.77-2.25-1.1a1,1,0,0,1-.41-.28h.86s.05,0,.07,0a.58.58,0,0,0,.44.12.13.13,0,0,0,.17,0,5.13,5.13,0,0,1,1.1.11,10.73,10.73,0,0,1,1.5,0c.26.05.37-.1.31-.36,0-.1,0-.12.11-.09s.41.14.61.22a.92.92,0,0,0,.37,0c.11,0,.16,0,.07-.15s-.1-.08-.05-.15.13,0,.2,0l.82.2a.11.11,0,0,0,0-.05c0-.1-.21-.13-.13-.24s.2,0,.3,0a4,4,0,0,0,1,.12c.07-.11-.15-.13-.06-.23s.19,0,.28,0l.53,0c.12,0,.25,0,.27-.16s.09-.09.16-.07a2.22,2.22,0,0,0,.63,0c.25,0,.25,0,.18-.25.23,0,.45,0,.68,0s.35,0,.13-.22c-.06-.06,0-.14.08-.1a1.7,1.7,0,0,0,1.09-.09,2.55,2.55,0,0,0,.54-.24c.48-.25,1-.49,1.45-.72a.33.33,0,0,1,.29,0l0,0c-.06-.07-.14-.14,0-.19s.2-.12.33-.07h0c.14-.12.2-.33.43-.38a.48.48,0,0,0,.38-.24c0-.06.1-.05.16,0h0a.15.15,0,0,0,.17-.08c.16-.05.2-.19.26-.31s.14-.11.1-.18S37.79,29.66,37.72,29.68ZM22,31.46l.07,0v0a.07.07,0,0,1-.09-.05S22,31.47,22,31.46Zm-.1.13c-.14.1-.25.19-.38.27s-.16,0-.18-.1l.41-.2h0ZM23,17.78h0l0,0ZM10.62,21c-.07,0-.09-.05-.12-.1A5.85,5.85,0,0,0,10,20Zm1.34.14h0s0,0,0,0S12,21.11,12,21.12Z" transform="translate(-1.93 -0.77)"/></svg>