<svg id="Weed_Marketing_copy" data-name="Weed Marketing copy" xmlns="http://www.w3.org/2000/svg" viewBox="0 0 36.37 28.55"><defs><style>.cls-1{fill:#231f20;}</style></defs><title>Cannabis-marketing-icon-black-40px</title><path class="cls-1" d="M27,21.13c-.19,0-.37,0-.57,0a1.24,1.24,0,0,0-.47,0s0,0,0,0c-.17,0-.35,0-.52,0s-.09,0-.13,0-.33.09-.49,0c-.15.07-.32,0-.48,0s-.1,0-.13,0-.24,0-.35,0,0,0-.06,0-.09-.05-.14,0l-.21.07s-.07,0-.07,0,0-.06-.07,0a1.51,1.51,0,0,0-.29.13s-.06,0-.07,0-.08-.06-.12,0l-.35.2c0-.05,0-.08,0-.14h-.11l-.28.13s0,0-.05,0-.11,0-.16,0a.8.8,0,0,0-.25.11s-.06.05-.08,0-.08,0-.12,0a1.53,1.53,0,0,0-.27.11c-.12,0-.25,0-.38,0h0s0,0,0,0,0,0,0,0,0,0,0,0a.4.4,0,0,0,.15,0,1.69,1.69,0,0,0,.6-.3.37.37,0,0,1,.15-.08.89.89,0,0,0,.49-.23s.05,0,0-.07,0-.07.06-.08a1.55,1.55,0,0,0,.55-.22s.09-.06.09-.09.07-.11.13-.13a2.68,2.68,0,0,0,.28-.18c.05,0,.15-.06.1-.16s0,0,.05,0a2.25,2.25,0,0,0,.53-.28c.11-.07.1-.07,0-.13s0,0,0,0a2.9,2.9,0,0,0,.54-.31s0,0,0,0,0,0-.06,0-.08,0-.12,0a2.22,2.22,0,0,0,.47-.39l-.1-.05.31-.28c.08-.09.08-.09,0-.14a0,0,0,0,0,0,0,1.34,1.34,0,0,0,.34-.37l0-.06c-.09-.08,0-.1.05-.14a1.12,1.12,0,0,1,.16-.22s0-.06,0-.08,0,0,0-.06l.05-.07,0,0h0c0-.08.08-.12.1-.19s0,0,0-.05,0-.06,0-.09a1.49,1.49,0,0,0,.18-.3s-.07,0-.09,0,0,0,0-.07a.62.62,0,0,0,.15-.29h0l0,0c-.07,0-.08,0-.05-.08A1.36,1.36,0,0,1,26.2,16s0,0,0,0,0-.09,0-.14a1.3,1.3,0,0,1,.08-.17v0c-.11-.07,0-.12,0-.19s.08-.11,0-.19,0,0,0,0h0a.15.15,0,0,0,0-.11h0s.07-.13,0-.14-.05-.08-.06-.12,0-.07,0-.08-.05,0-.07,0c-.18.17-.29.42-.53.53-.06,0-.09.1-.14.15s-.05.08-.08.08-.08,0-.11.06l-.15.18s0,.06-.06,0-.1,0-.13.05l-.17.21s0,.06,0,0-.08,0-.1,0l-.21.25s0,.06-.05,0-.09,0-.12,0l-.2.24s0,.06-.05.05-.12,0-.15,0l-.2.25s0,.05-.05,0-.09,0-.12.05l-.27.29c0-.12-.06-.12-.14,0a2.36,2.36,0,0,0-.26.36s0,.08-.08,0-.08-.05-.11,0a2.4,2.4,0,0,0-.23.38s0,.07-.08,0-.11,0-.15,0a3.35,3.35,0,0,0-.21.36s0,.08-.07,0-.11,0-.15,0a1.94,1.94,0,0,0-.16.48c-.06,0-.06-.08-.1-.1a1.79,1.79,0,0,0-.3.47s0,.07,0,.06-.11,0-.14.07-.23.43-.38.63a5.11,5.11,0,0,0-.41.62v-.06h0s0,0,0-.07a.26.26,0,0,1,.06-.13A1.47,1.47,0,0,0,20.7,20c0-.15,0-.18-.11-.25a.92.92,0,0,0,.16-.31c0-.11.08-.22.11-.33s.05-.16-.1-.18h0a1.49,1.49,0,0,0,.29-.7c0-.15,0-.15-.12-.15h0S21,18,21,17.91s0,0,0,0h0a2.14,2.14,0,0,0,.19-.59c0-.05,0-.07-.07-.07s-.09,0-.06-.1a2.09,2.09,0,0,0,.14-.61s0-.08,0-.09-.05-.09,0-.14a3.05,3.05,0,0,0,.14-.54s0-.09-.05-.08-.09,0-.08-.09a4.53,4.53,0,0,0,.06-.5s0-.1,0-.08-.08,0-.07-.08a2.25,2.25,0,0,0,0-.52s0-.06,0-.08,0-.07,0-.11a1.7,1.7,0,0,0,0-.45s0-.08,0-.09-.05-.06-.05-.1a3.38,3.38,0,0,0,0-.45c0-.06,0-.07-.08,0l0,0a4.21,4.21,0,0,0,0-.5s0-.09-.05-.07-.05,0-.06-.07a3.17,3.17,0,0,0,0-.43c0-.06,0-.06-.09-.05h0a3.57,3.57,0,0,0,0-.46s-.06-.13-.11-.12a2.2,2.2,0,0,0,0-.36s0-.07,0-.07-.07-.06-.07-.1a2,2,0,0,1,0-.24c0-.05,0-.12-.06-.13s-.07-.08-.08-.14-.09-.42-.12-.63c0-.05,0-.14-.06-.14s-.06.07-.09.12,0,.11-.08.11-.1.09-.1.16a.34.34,0,0,1-.05.23.27.27,0,0,0-.08.16,2.17,2.17,0,0,0,0,.25s0,.06,0,.06-.06.06-.08.1a1.33,1.33,0,0,0,0,.28s0,.08,0,.08-.08.09-.09.15a1.33,1.33,0,0,0,0,.28s0,.09,0,.08-.06,0-.07.09a2.07,2.07,0,0,0,0,.35s0,.08,0,.08-.06,0-.06.07a3,3,0,0,0,0,.42s0,.07,0,.07-.08,0-.08.1a2.38,2.38,0,0,0,0,.38s0,.07,0,.08-.07.08-.07.14a1.71,1.71,0,0,0,0,.32c0,.07.05.15-.06.18s0,0,0,.05,0,.14,0,.21.06.31-.05.44a.13.13,0,0,0,0,.06c0,.13,0,.25,0,.38s0,.11,0,.14a.28.28,0,0,0,0,.2,1.75,1.75,0,0,0,0,.46c0,.05,0,.1-.05.08s-.08,0-.08.08a2.4,2.4,0,0,0,.13.59c0,.06,0,.1-.06.08s-.08,0-.07.08a2.26,2.26,0,0,0,.17.6c0,.05.05.11,0,.11s-.07,0-.06.08a2.23,2.23,0,0,0,.21.63c.05.09,0,.11-.06.11s-.09.05-.07.12a4.29,4.29,0,0,0,.24.59s.06.08,0,.09-.08,0-.06.1a4,4,0,0,0,.25.65s.05.06,0,.08,0,.15,0,.23.07.13,0,.23c-.06-.12-.16-.17-.21-.29a1.3,1.3,0,0,0-.25-.42s0-.07-.09,0-.08,0-.09,0a1.63,1.63,0,0,0-.11-.31c0-.08-.08-.09-.15,0s-.08,0-.09,0a1,1,0,0,0-.18-.48c0-.05-.06-.07-.1,0s-.08,0-.1,0a.91.91,0,0,0-.22-.38s-.07-.06-.1,0-.06,0-.09,0a1.15,1.15,0,0,0-.25-.33s-.06-.06-.1,0-.07,0-.09,0a1.93,1.93,0,0,0-.27-.3s0-.07-.08,0-.08,0-.11,0a1,1,0,0,0-.27-.27h0a.39.39,0,0,1-.2-.18h0l0,0h0a.11.11,0,0,0-.08-.08h0s0-.05,0,0-.08,0-.11,0h0s0,0,0,0l0,0h0a.05.05,0,0,0,0-.07h0s0,0,0,0l0,0a0,0,0,0,1,0,0,0,0,0,0,0,0,0,0,0,0,0,1,0,0s0,0,0,0l-.11,0h0s0,0,0,0l0,0s0-.05,0-.05h0a.06.06,0,0,0-.05-.06h0l0-.05a.48.48,0,0,1-.17-.1h0v0h0l0,0h0a.13.13,0,0,0-.09-.1l-.05-.05v0s0,0,0,0h-.09l0-.07h0s0,0,0,0h0s0,0,0,0a.08.08,0,0,0-.07-.07l0,0h0c0-.06-.09,0-.12,0h0s0,0,0,0l0,0s0-.05,0-.05h0a0,0,0,0,0,0,0h0s0-.09-.07-.08-.09,0-.12-.07a4.59,4.59,0,0,0-.37-.39h0s0,0,0,0h0s0,0,0,0v.05s0,.06,0,.09,0,.05,0,.06,0,0,0,.09.07.14,0,.2,0,.15,0,.23,0,.07,0,.09,0,.22.07.32,0,.05,0,.07,0,.09,0,.13a1.51,1.51,0,0,0,.09.18s0,0,0,.06,0,.09,0,.13a2,2,0,0,0,.11.2s0,.05,0,.06,0,.08,0,.12a1.48,1.48,0,0,0,.19.27c-.1,0-.07.06,0,.11a2.35,2.35,0,0,0,.19.25s.06,0,0,.06,0,.05,0,.07a1.7,1.7,0,0,0,.23.3s.06,0,0,0,0,.07,0,.1a2.17,2.17,0,0,0,.32.36c-.1.07-.1.08,0,.17l.14.14s.17.06.06.16a.14.14,0,0,0,0,0l.07.07a4.2,4.2,0,0,0,.38.3l-.13,0c-.06,0-.07,0,0,.08l.05,0a5,5,0,0,0,.5.29c-.12.07-.12.07,0,.14a2.76,2.76,0,0,0,.44.25c.06,0,.16,0,.13.13a.09.09,0,0,0,0,.05,2.22,2.22,0,0,0,.42.25s.06,0,.06.05,0,.13.1.16a1.21,1.21,0,0,0,.54.22.15.15,0,0,1,.09,0,1.25,1.25,0,0,0,.56.34.68.68,0,0,1,.24.12,1.17,1.17,0,0,0,.58.28.21.21,0,0,1,.13.07h-.2a.11.11,0,0,0-.11,0,0,0,0,0,1,0,0h0a0,0,0,0,1,0,0h0a.13.13,0,0,0-.16-.07.37.37,0,0,0-.27-.07.08.08,0,0,1-.08,0,1.06,1.06,0,0,0-.33-.14s-.06,0-.08,0-.05,0-.08,0a1.2,1.2,0,0,0-.28-.13s-.07,0-.08,0-.1,0-.15,0l-.24-.09h0c-.07.11-.13,0-.19,0l-.22-.08s-.05,0-.05,0-.09,0-.13,0a1.82,1.82,0,0,1-.25-.07s-.05,0-.06,0,0,0-.07,0a.84.84,0,0,0-.27,0,1.16,1.16,0,0,1-.32,0,0,0,0,0,0-.06,0,1.49,1.49,0,0,1-.47,0c-.23,0-.47,0-.71,0h-.64a2.61,2.61,0,0,1-.62,0,.28.28,0,0,0-.18,0,.76.76,0,0,0,.24.26,2.13,2.13,0,0,1,.25.16,1.29,1.29,0,0,0,.35.22,1.38,1.38,0,0,0,.42.21l0,0c0,.07.11.07.17.09s.09,0,.12,0,.34.12.49.22.13,0,.18,0a1.28,1.28,0,0,0,.5.16,4.51,4.51,0,0,0,.83.16,5.69,5.69,0,0,0,.83.06,5.28,5.28,0,0,1,.56,0c.32,0,.63-.08,1-.07h0c.14-.09.29-.05.44-.07s.09,0,.07.05h0l-.06,0h0l-.59.27-.36.19c-.23.11-.45.23-.67.36l0,0s0,0,0,0l0,0h0a2.29,2.29,0,0,0-.27.14,6.37,6.37,0,0,0-.55.35,6.26,6.26,0,0,0-.66.49.52.52,0,0,0-.18.15l0,0h0s0,0,0,0h0s0,0,0,0,0,.08-.06.11a.07.07,0,0,0,.09,0,3,3,0,0,0,.42-.05l.54-.1a4.22,4.22,0,0,0,.69-.21l.57-.26a4.68,4.68,0,0,0,.71-.44,1,1,0,0,0,.26-.2c.11-.13.25-.22.36-.35a4.07,4.07,0,0,0,.51-.59l.05-.09s0,0,0,0a0,0,0,0,1,0,0v.09l.13-.17.05,0a.3.3,0,0,0,.13.22c.14.13.24.28.37.41s.29.27.44.39a6.27,6.27,0,0,0,.63.42,6.08,6.08,0,0,0,.68.33,1.48,1.48,0,0,0,.27.1c.2.05.39.12.59.16l.6.11a.14.14,0,0,0,.09,0h0a.73.73,0,0,0,.3.06.26.26,0,0,0-.11-.16l-.33-.25a4.23,4.23,0,0,0-.42-.32l-.28-.18c-.17-.12-.36-.23-.54-.34s-.43-.25-.65-.36-.6-.31-.91-.44a.42.42,0,0,1-.16-.11H21a.2.2,0,0,0,.18.05s0,0,.06,0a2.28,2.28,0,0,1,.45,0c.2,0,.4,0,.6,0s.15,0,.13-.14,0-.05,0,0l.24.09a.39.39,0,0,0,.15,0c.05,0,.07,0,0-.06s0,0,0-.06.05,0,.08,0l.33.08s0,0,0,0-.09-.05-.06-.1.08,0,.12,0a1.51,1.51,0,0,0,.42.05c0-.05-.06-.05,0-.09s.08,0,.12,0h.21s.1,0,.11-.06,0,0,.06,0a.71.71,0,0,0,.25,0c.11,0,.11,0,.08-.1a2.43,2.43,0,0,0,.27,0s.14,0,.05-.09,0-.06,0,0a.7.7,0,0,0,.43,0,.85.85,0,0,0,.22-.09c.19-.11.39-.2.58-.29a.13.13,0,0,1,.12,0h0s-.06-.06,0-.08.08,0,.13,0h0c.06-.05.08-.14.17-.16s.13,0,.16-.09,0,0,.06,0h0a.08.08,0,0,0,.07,0c.06,0,.08-.07.1-.12s.06-.05,0-.07S27,21.12,27,21.13Zm-6.32.71,0,0h0s0,0,0,0A0,0,0,0,0,20.67,21.84Zm0,.06-.15.1s-.06,0-.08,0l.17-.08h0Zm.44-5.56Zm-5,1.29s0,0-.05,0a2,2,0,0,0-.21-.37Zm.54.06h0v0Z" transform="translate(-1.82 -6.2)"/><path class="cls-1" d="M36.09,6.2H3.91A2.08,2.08,0,0,0,1.82,8.26v18.4a2.08,2.08,0,0,0,2.09,2.06H36.09a2.08,2.08,0,0,0,2.09-2.06V8.26A2.08,2.08,0,0,0,36.09,6.2Zm-.46,19.71H4.06V8.51H35.63Z" transform="translate(-1.82 -6.2)"/><path class="cls-1" d="M26.79,32.36H24.34l-1.93-3.24H17.49l-1.85,3.24H13.21c-.48,0-.87.54-.87,1.2s.39,1.19.87,1.19H26.79c.48,0,.87-.54.87-1.19S27.27,32.36,26.79,32.36Z" transform="translate(-1.82 -6.2)"/></svg>