<svg id="Catering_copy" data-name="Catering copy" xmlns="http://www.w3.org/2000/svg" viewBox="0 0 28.11 34.06"><defs><style>.cls-1{fill:#231f20;}</style></defs><title>Catering-icon-black-40px</title><path class="cls-1" d="M29.35,30.87s-5.85,4.64-5.87,4.69a19.64,19.64,0,0,0,1.6,2s1.35-1,2.92-2.28,2.87-2.32,2.9-2.36-.17-.36-.73-1.06C29.74,31.31,29.37,30.87,29.35,30.87Z" transform="translate(-5.95 -3.48)"/><path class="cls-1" d="M33.94,19.63c-.12-.11-.2-.11-13.94-.11H12c-5.82,0-5.89,0-6,.11s-.11.2-.11.86c0,1.05-.14,1,1.82,1h.56l.9.77c.53.54,2,1.77,4.5,3.7,1.45,1.14,1.62,1.29,1.69,1.51a18.23,18.23,0,0,0,1.75,3.71,4.76,4.76,0,0,0,1.69,1.61,24.23,24.23,0,0,0,4.56,2.17s1.24-.93,2.66-2.05l2.66-2.13c.06-.06,0-.32-.12-1.52a23.15,23.15,0,0,1-.37-3.87,6.71,6.71,0,0,1,.63-2.42,8,8,0,0,0,.39-1.19l0-.28H33.8l.13-.14c.12-.12.12-.2.12-.85S34,19.74,33.94,19.63ZM14.09,23.08c-.45-.29-1.23-.77-1.73-1.07l-.92-.56h2.25l.14.15a2.1,2.1,0,0,0,.38.3c.29.17.48.49.7,1.19.08.27.16.52.16.55S15.13,23.75,14.09,23.08Zm4.6-1.49c0,.07-.09.55-.16,1.07a17.74,17.74,0,0,1-.3,1.94l-.07.3-.08-.3c0-.16-.15-.47-.24-.7a13.61,13.61,0,0,0-.95-2l-.24-.43s.47,0,1,0h1Zm8.62.07a3.34,3.34,0,0,0-.83,1.28,5.33,5.33,0,0,0-.19,1,9.48,9.48,0,0,1-1.09,4.19,3.51,3.51,0,0,1-1.43.74,4.11,4.11,0,0,1-1.71,0,3.32,3.32,0,0,1-1.77-1.43l-.23-.37.09-.83c.14-1.29.31-3.22.36-4.05l0-.76h7Z" transform="translate(-5.95 -3.48)"/><path class="cls-1" d="M7.34,18.78c.85,0,2.27,0,4.7,0h8c8.12,0,11.47,0,12.87,0,.24-.05.33-.12.36-.2.3-.77-.49-4.12-1.39-5.93A17.43,17.43,0,0,0,30,9.76a14.3,14.3,0,0,0-6.18-3.88c-1.07-.31-2-.72-2-.89a2,2,0,0,0-1.68-1.51h-.11a1.4,1.4,0,0,0-.51.12,1.82,1.82,0,0,0-1.14,1.15,1,1,0,0,0,0,.24c0,.12-.44.36-1.07.6C13,7.21,10.37,8.75,8.39,12.65,7.49,14.46,6.7,17.81,7,18.58,7,18.66,7.12,18.73,7.34,18.78ZM18.57,6.19l.19.66C13.19,9,10.63,10.45,8.88,17.34c-.35,0-.47,0-.9,0C9.17,11.55,12,7.88,18.57,6.19Z" transform="translate(-5.95 -3.48)"/></svg>